<svg width="101" height="101" viewBox="0 0 101 101" fill="none" xmlns="http://www.w3.org/2000/svg">
<path d="M83.7333 46.3333V38C83.7333 35.7898 82.8553 33.6702 81.2925 32.1074C79.7297 30.5446 77.6101 29.6666 75.4 29.6666H25.4C23.1898 29.6666 21.0702 30.5446 19.5074 32.1074C17.9446 33.6702 17.0667 35.7898 17.0667 38V58.8333C17.0667 61.0434 17.9446 63.163 19.5074 64.7258C21.0702 66.2886 23.1898 67.1666 25.4 67.1666H42.0667M58.7333 88V71.3333C58.7333 69.1232 59.6113 67.0035 61.1741 65.4407C62.7369 63.8779 64.8565 63 67.0667 63C69.2768 63 71.3964 63.8779 72.9592 65.4407C74.522 67.0035 75.4 69.1232 75.4 71.3333V88M58.7333 79.6666H75.4M87.9 63V88" stroke="#A56A58" stroke-width="5" stroke-linecap="round" stroke-linejoin="round"/>
</svg>
