<svg width="100" height="100" viewBox="0 0 100 100" fill="none" xmlns="http://www.w3.org/2000/svg">
<path d="M87.5 33.3335C81.4583 33.3335 78.0833 39.3335 79.4583 43.7918L64.6666 58.6252C63.4166 58.2502 61.5833 58.2502 60.3333 58.6252L49.7083 48.0002C51.125 43.5418 47.75 37.5002 41.6666 37.5002C35.625 37.5002 32.2083 43.5002 33.625 48.0002L14.625 66.9585C10.1666 65.5835 4.16663 68.9585 4.16663 75.0002C4.16663 79.5835 7.91663 83.3335 12.5 83.3335C18.5416 83.3335 21.9166 77.3335 20.5416 72.8752L39.5 53.8752C40.75 54.2502 42.5833 54.2502 43.8333 53.8752L54.4583 64.5002C53.0416 68.9585 56.4166 75.0002 62.5 75.0002C68.5416 75.0002 71.9583 69.0002 70.5416 64.5002L85.375 49.7085C89.8333 51.0835 95.8333 47.7085 95.8333 41.6668C95.8333 37.0835 92.0833 33.3335 87.5 33.3335Z" fill="#A56A58"/>
<path d="M62.5 37.5L66.4166 28.875L75 25L66.4166 21.125L62.5 12.5L58.6666 21.125L50 25L58.6666 28.875L62.5 37.5ZM14.5833 45.8333L16.6666 37.5L25 35.4167L16.6666 33.3333L14.5833 25L12.5 33.3333L4.16663 35.4167L12.5 37.5L14.5833 45.8333Z" fill="#A56A58"/>
</svg>
