<svg width="100" height="100" viewBox="0 0 100 100" fill="none" xmlns="http://www.w3.org/2000/svg">
<path d="M58.5 61.9293L54.8083 74.8418C53.425 79.6751 46.575 79.6751 45.1917 74.8418L41.5042 61.9293C41.2707 61.1125 40.833 60.3686 40.2322 59.7679C39.6315 59.1672 38.8877 58.7294 38.0708 58.496L25.1583 54.8085C20.325 53.4251 20.325 46.5751 25.1583 45.1918L38.0708 41.5043C38.8877 41.2708 39.6315 40.8331 40.2322 40.2324C40.833 39.6317 41.2707 38.8878 41.5042 38.071L45.1917 25.1585C46.575 20.3251 53.425 20.3251 54.8083 25.1585L58.4958 38.071C58.7293 38.8878 59.1671 39.6317 59.7678 40.2324C60.3685 40.8331 61.1123 41.2708 61.9292 41.5043L74.8417 45.1918C79.675 46.5751 79.675 53.4251 74.8417 54.8085L61.9292 58.496C61.1123 58.7294 60.3685 59.1672 59.7678 59.7679C59.1671 60.3686 58.7293 61.1125 58.4958 61.9293M81.5417 82.1501L79.975 88.4335C79.7667 89.2751 78.5708 89.2751 78.3583 88.4335L76.7875 82.1501C76.7507 82.0043 76.6751 81.8711 76.5687 81.7647C76.4624 81.6584 76.3292 81.5828 76.1833 81.546L69.9 79.9751C69.0583 79.7668 69.0583 78.571 69.9 78.3585L76.1833 76.7876C76.3292 76.7508 76.4624 76.6752 76.5687 76.5689C76.6751 76.4625 76.7507 76.3293 76.7875 76.1835L78.3583 69.9001C78.5667 69.0585 79.7625 69.0585 79.975 69.9001L81.5458 76.1835C81.5826 76.3293 81.6582 76.4625 81.7646 76.5689C81.871 76.6752 82.0041 76.7508 82.15 76.7876L88.4333 78.3585C89.275 78.5668 89.275 79.7626 88.4333 79.9751L82.15 81.546C82.0041 81.5828 81.871 81.6584 81.7646 81.7647C81.6582 81.8711 81.5785 82.0043 81.5417 82.1501ZM23.2083 23.8168L21.6417 30.1001C21.4333 30.9418 20.2333 30.9418 20.025 30.1001L18.4542 23.8168C18.4174 23.6709 18.3418 23.5378 18.2354 23.4314C18.129 23.325 17.9959 23.2494 17.85 23.2126L11.5667 21.6418C10.725 21.4335 10.725 20.2335 11.5667 20.0251L17.85 18.4543C17.9959 18.4175 18.129 18.3419 18.2354 18.2355C18.3418 18.1292 18.4174 17.996 18.4542 17.8501L20.025 11.5668C20.2333 10.7251 21.4333 10.7251 21.6417 11.5668L23.2125 17.8501C23.2493 17.996 23.3249 18.1292 23.4313 18.2355C23.5376 18.3419 23.6708 18.4175 23.8167 18.4543L30.1 20.0251C30.9417 20.2335 30.9417 21.4335 30.1 21.6418L23.8167 23.2126C23.6708 23.2494 23.5376 23.325 23.4313 23.4314C23.3249 23.5378 23.2451 23.6709 23.2083 23.8168Z" stroke="#A56A58" stroke-width="5" stroke-miterlimit="10" stroke-linecap="round" stroke-linejoin="round"/>
</svg>
