<svg width="50" height="50" viewBox="0 0 50 50" fill="none" xmlns="http://www.w3.org/2000/svg">
<path d="M22.0104 4.32296C22.944 3.87713 23.9654 3.64575 25 3.64575C26.0345 3.64575 27.056 3.87713 27.9896 4.32296C28.8104 4.71671 29.5625 5.35837 30.6146 6.25629L30.7791 6.39379C31.7791 7.24796 32.7354 7.65212 34.0708 7.75837L34.2833 7.77504C35.6625 7.88546 36.6479 7.96254 37.5062 8.26671C38.4818 8.61135 39.3678 9.16982 40.0996 9.90122C40.8314 10.6326 41.3903 11.5184 41.7354 12.4938C42.0375 13.3521 42.1146 14.3375 42.225 15.7167L42.2416 15.9292C42.3479 17.2646 42.7541 18.2209 43.6062 19.2209L43.7437 19.3834C44.6416 20.4375 45.2854 21.1896 45.6771 22.0105C46.1229 22.944 46.3543 23.9655 46.3543 25C46.3543 26.0346 46.1229 27.0561 45.6771 27.9896C45.2833 28.8105 44.6416 29.5625 43.7437 30.6146L43.6062 30.7792C42.7354 31.8 42.3458 32.7605 42.2416 34.0709L42.225 34.2834C42.1146 35.6625 42.0375 36.648 41.7333 37.5063C41.3887 38.4818 40.8302 39.3679 40.0988 40.0997C39.3674 40.8314 38.4816 41.3903 37.5062 41.7355C36.6479 42.0375 35.6625 42.1146 34.2833 42.225L34.0708 42.2417C32.7354 42.348 31.7791 42.7542 30.7791 43.6063L30.6146 43.7438C29.5625 44.6417 28.8104 45.2855 27.9896 45.6771C27.056 46.1229 26.0345 46.3543 25 46.3543C23.9654 46.3543 22.944 46.1229 22.0104 45.6771C21.1896 45.2834 20.4375 44.6417 19.3854 43.7438L19.2208 43.6063C18.3125 42.7875 17.1504 42.3057 15.9291 42.2417L15.7166 42.225C14.3375 42.1146 13.3521 42.0375 12.4937 41.7334C11.5182 41.3887 10.6321 40.8303 9.90036 40.0989C9.16859 39.3675 8.60969 38.4816 8.26456 37.5063C7.96248 36.648 7.8854 35.6625 7.77498 34.2834L7.75831 34.0709C7.69428 32.8497 7.21252 31.6875 6.39373 30.7792L6.25623 30.6146C5.35831 29.5625 4.71456 28.8105 4.3229 27.9896C3.87707 27.0561 3.64569 26.0346 3.64569 25C3.64569 23.9655 3.87707 22.944 4.3229 22.0105C4.71665 21.1896 5.35831 20.4375 6.25623 19.3855L6.39373 19.2209C7.21252 18.3125 7.69428 17.1504 7.75831 15.9292L7.77498 15.7167C7.8854 14.3375 7.96248 13.3521 8.26664 12.4938C8.61129 11.5183 9.16976 10.6322 9.90116 9.90042C10.6326 9.16865 11.5184 8.60975 12.4937 8.26462C13.3521 7.96254 14.3375 7.88546 15.7166 7.77504L15.9291 7.75837C17.1504 7.69434 18.3125 7.21258 19.2208 6.39379L19.3833 6.25629C20.4375 5.35837 21.1896 4.71462 22.0104 4.32296ZM28.7437 17.073C28.7971 16.8746 28.8108 16.6677 28.7842 16.464C28.7576 16.2604 28.6911 16.0639 28.5886 15.8859C28.4861 15.708 28.3495 15.5519 28.1866 15.4267C28.0238 15.3015 27.8379 15.2096 27.6396 15.1563C27.4412 15.1029 27.2343 15.0892 27.0306 15.1158C26.827 15.1424 26.6305 15.2089 26.4525 15.3114C26.2746 15.4139 26.1185 15.5505 25.9933 15.7134C25.8681 15.8762 25.7762 16.0621 25.7229 16.2605L21.2583 32.9271C21.1506 33.3274 21.2063 33.7541 21.4131 34.1134C21.62 34.4726 21.9611 34.735 22.3614 34.8427C22.7617 34.9505 23.1885 34.8948 23.5477 34.6879C23.907 34.481 24.1693 34.1399 24.2771 33.7396L28.7437 17.073ZM32.1625 19.1021C32.0194 18.9486 31.8469 18.8255 31.6553 18.7401C31.4636 18.6547 31.2567 18.6088 31.0469 18.6051C30.8371 18.6014 30.6287 18.6399 30.4341 18.7185C30.2396 18.7971 30.0629 18.9141 29.9145 19.0625C29.7661 19.2108 29.6491 19.3876 29.5706 19.5821C29.492 19.7767 29.4534 19.9851 29.4571 20.1949C29.4608 20.4047 29.5067 20.6116 29.5921 20.8032C29.6775 20.9949 29.8006 21.1674 29.9541 21.3105L30.2271 21.5855C31.325 22.6813 32.0333 23.3959 32.4875 23.9917C32.9146 24.55 32.9666 24.8167 32.9666 25C32.9666 25.1834 32.9146 25.45 32.4875 26.0084C32.0333 26.6042 31.325 27.3188 30.2271 28.4146L29.9541 28.6875C29.8006 28.8306 29.6775 29.0031 29.5921 29.1948C29.5067 29.3864 29.4608 29.5933 29.4571 29.8031C29.4534 30.0129 29.492 30.2213 29.5706 30.4159C29.6491 30.6104 29.7661 30.7872 29.9145 30.9355C30.0629 31.0839 30.2396 31.2009 30.4341 31.2795C30.6287 31.358 30.8371 31.3966 31.0469 31.3929C31.2567 31.3892 31.4636 31.3433 31.6553 31.2579C31.8469 31.1725 32.0194 31.0494 32.1625 30.8959L32.5104 30.55C33.5146 29.55 34.375 28.6875 34.9708 27.9042C35.6104 27.0667 36.0896 26.1417 36.0896 25C36.0896 23.8584 35.6104 22.9334 34.9708 22.0959C34.375 21.3125 33.5125 20.45 32.5125 19.45L32.1625 19.1021ZM20.0458 19.1021C19.7528 18.8095 19.3557 18.6452 18.9416 18.6452C18.5276 18.6452 18.1304 18.8095 17.8375 19.1021L17.4896 19.45C16.4875 20.45 15.625 21.3125 15.0291 22.0959C14.3896 22.9334 13.9104 23.8584 13.9104 25C13.9104 26.1417 14.3896 27.0667 15.0291 27.9042C15.625 28.6875 16.4875 29.55 17.4875 30.55L17.8375 30.898C18.1337 31.174 18.5254 31.3242 18.9302 31.3171C19.335 31.3099 19.7212 31.1459 20.0075 30.8597C20.2938 30.5734 20.4578 30.1872 20.4649 29.7824C20.4721 29.3776 20.3218 28.9858 20.0458 28.6896L19.7729 28.4146C18.675 27.3188 17.9666 26.6042 17.5125 26.0084C17.0854 25.45 17.0333 25.1834 17.0333 25C17.0333 24.8167 17.0854 24.55 17.5125 23.9917C17.9666 23.3959 18.675 22.6813 19.7729 21.5855L20.0458 21.3125C20.191 21.1674 20.3062 20.9951 20.3848 20.8055C20.4634 20.6159 20.5038 20.4126 20.5038 20.2073C20.5038 20.0021 20.4634 19.7988 20.3848 19.6092C20.3062 19.4195 20.191 19.2472 20.0458 19.1021Z" fill="#A56A58"/>
</svg>
