<svg width="50" height="50" viewBox="0 0 50 50" fill="none" xmlns="http://www.w3.org/2000/svg">
<g clip-path="url(#clip0_91_160)">
<path d="M45.8563 6.8103H33.7292C31.7008 6.81012 29.7327 7.49992 28.1482 8.76635C26.5638 10.0328 25.4572 11.8005 25.0104 13.7791C24.5631 11.8005 23.4561 10.033 21.8713 8.76697C20.2864 7.50091 18.318 6.81163 16.2896 6.81239H4.16667C3.61932 6.81211 3.07728 6.91968 2.57152 7.12896C2.06576 7.33823 1.60618 7.6451 1.21905 8.03204C0.831918 8.41898 0.524817 8.8784 0.315293 9.38406C0.105768 9.88972 -0.00207526 10.4317 -0.0020752 10.9791V32.3207C-0.0020752 33.4258 0.436912 34.4856 1.21831 35.267C1.99971 36.0484 3.05952 36.4874 4.16459 36.4874H11.9521C20.8208 36.4874 23.4729 38.6228 24.7396 43.0166C24.7521 43.0683 24.7822 43.114 24.8248 43.146C24.8674 43.1779 24.9198 43.194 24.9729 43.1916H25.0229C25.0761 43.194 25.1285 43.1779 25.171 43.146C25.2136 43.114 25.2437 43.0683 25.2563 43.0166C26.5313 38.6228 29.1833 36.4895 38.0438 36.4895H45.8292C46.3765 36.4897 46.9186 36.3822 47.4243 36.1729C47.9301 35.9636 48.3897 35.6568 48.7768 35.2698C49.1639 34.8829 49.471 34.4235 49.6806 33.9178C49.8901 33.4121 49.9979 32.8702 49.9979 32.3228V10.9791C49.9979 9.87794 49.5621 8.82159 48.7856 8.04085C48.0092 7.2601 46.9553 6.81844 45.8542 6.81239L45.8563 6.8103ZM21.0063 29.8436C21.0063 29.883 20.9985 29.922 20.9834 29.9584C20.9683 29.9948 20.9462 30.0279 20.9184 30.0558C20.8905 30.0836 20.8575 30.1057 20.8211 30.1208C20.7847 30.1359 20.7457 30.1436 20.7063 30.1436H6.78542C6.70586 30.1436 6.62955 30.112 6.57329 30.0558C6.51703 29.9995 6.48542 29.9232 6.48542 29.8436V27.8582C6.48542 27.7787 6.51703 27.7024 6.57329 27.6461C6.62955 27.5898 6.70586 27.5582 6.78542 27.5582H20.7083C20.7879 27.5582 20.8642 27.5898 20.9205 27.6461C20.9767 27.7024 21.0083 27.7787 21.0083 27.8582L21.0063 29.8436ZM21.0063 24.5582C21.0063 24.5976 20.9985 24.6366 20.9834 24.673C20.9683 24.7094 20.9462 24.7425 20.9184 24.7704C20.8905 24.7982 20.8575 24.8203 20.8211 24.8354C20.7847 24.8505 20.7457 24.8582 20.7063 24.8582H6.78542C6.70586 24.8582 6.62955 24.8266 6.57329 24.7704C6.51703 24.7141 6.48542 24.6378 6.48542 24.5582V22.5749C6.48542 22.4953 6.51703 22.419 6.57329 22.3628C6.62955 22.3065 6.70586 22.2749 6.78542 22.2749H20.7083C20.7879 22.2749 20.8642 22.3065 20.9205 22.3628C20.9767 22.419 21.0083 22.4953 21.0083 22.5749L21.0063 24.5582ZM21.0063 19.2728C21.0063 19.3122 20.9985 19.3512 20.9834 19.3876C20.9683 19.424 20.9462 19.4571 20.9184 19.4849C20.8905 19.5128 20.8575 19.5349 20.8211 19.55C20.7847 19.565 20.7457 19.5728 20.7063 19.5728H6.78542C6.70586 19.5728 6.62955 19.5412 6.57329 19.4849C6.51703 19.4287 6.48542 19.3524 6.48542 19.2728V17.2916C6.48542 17.212 6.51703 17.1357 6.57329 17.0794C6.62955 17.0232 6.70586 16.9916 6.78542 16.9916H20.7083C20.7879 16.9916 20.8642 17.0232 20.9205 17.0794C20.9767 17.1357 21.0083 17.212 21.0083 17.2916L21.0063 19.2728ZM43.5146 29.8353C43.5146 29.9149 43.483 29.9912 43.4267 30.0474C43.3705 30.1037 43.2942 30.1353 43.2146 30.1353H29.2938C29.2142 30.1353 29.1379 30.1037 29.0816 30.0474C29.0254 29.9912 28.9938 29.9149 28.9938 29.8353V27.8499C28.9938 27.8105 29.0015 27.7715 29.0166 27.7351C29.0317 27.6987 29.0538 27.6656 29.0816 27.6378C29.1095 27.6099 29.1426 27.5878 29.179 27.5727C29.2154 27.5576 29.2544 27.5499 29.2938 27.5499H43.2146C43.254 27.5499 43.293 27.5576 43.3294 27.5727C43.3658 27.5878 43.3989 27.6099 43.4267 27.6378C43.4546 27.6656 43.4767 27.6987 43.4918 27.7351C43.5068 27.7715 43.5146 27.8105 43.5146 27.8499V29.8353ZM43.5146 24.5499C43.5146 24.6295 43.483 24.7058 43.4267 24.762C43.3705 24.8183 43.2942 24.8499 43.2146 24.8499H29.2938C29.2142 24.8499 29.1379 24.8183 29.0816 24.762C29.0254 24.7058 28.9938 24.6295 28.9938 24.5499V22.5666C28.9938 22.487 29.0254 22.4107 29.0816 22.3544C29.1379 22.2982 29.2142 22.2666 29.2938 22.2666H43.2146C43.2942 22.2666 43.3705 22.2982 43.4267 22.3544C43.483 22.4107 43.5146 22.487 43.5146 22.5666V24.5499ZM43.5146 19.2645C43.5146 19.344 43.483 19.4203 43.4267 19.4766C43.3705 19.5329 43.2942 19.5645 43.2146 19.5645H29.2938C29.2142 19.5645 29.1379 19.5329 29.0816 19.4766C29.0254 19.4203 28.9938 19.344 28.9938 19.2645V17.2916C28.9938 17.212 29.0254 17.1357 29.0816 17.0794C29.1379 17.0232 29.2142 16.9916 29.2938 16.9916H43.2146C43.2942 16.9916 43.3705 17.0232 43.4267 17.0794C43.483 17.1357 43.5146 17.212 43.5146 17.2916V19.2749V19.2645Z" fill="#A56A58"/>
</g>
<defs>
<clipPath id="clip0_91_160">
<rect width="50" height="50" fill="white"/>
</clipPath>
</defs>
</svg>
