<svg width="101" height="101" viewBox="0 0 101 101" fill="none" xmlns="http://www.w3.org/2000/svg">
<path d="M21.0334 35.9167H27.2834M27.2834 35.9167H33.5334M27.2834 35.9167V65.0833M27.2834 65.0833H21.0334M27.2834 65.0833H33.5334M16.8667 25.5H83.5334C85.7435 25.5 87.8631 26.378 89.4259 27.9408C90.9887 29.5036 91.8667 31.6232 91.8667 33.8333V67.1667C91.8667 69.3768 90.9887 71.4964 89.4259 73.0592C87.8631 74.622 85.7435 75.5 83.5334 75.5H16.8667C14.6566 75.5 12.537 74.622 10.9742 73.0592C9.41136 71.4964 8.53339 69.3768 8.53339 67.1667V33.8333C8.53339 31.6232 9.41136 29.5036 10.9742 27.9408C12.537 26.378 14.6566 25.5 16.8667 25.5Z" stroke="#A56A58" stroke-width="5" stroke-linecap="round" stroke-linejoin="round"/>
</svg>
