<svg width="100" height="100" viewBox="0 0 100 100" fill="none" xmlns="http://www.w3.org/2000/svg">
<g clip-path="url(#clip0_91_176)">
<path d="M14.7459 64.3V53.9333H85.2542V64.3M82.3959 21.7875H88.6167M81.1084 36.0542L85.5042 40.4542M81.1084 7.525L85.5042 3.125M17.6042 21.7875H11.3834M18.8917 36.0542L14.4917 40.4542M18.8917 7.525L14.4917 3.125M50 40.8792V62.2292M3.33752 85.9875C3.33752 88.875 4.4846 91.6443 6.5264 93.6861C8.5682 95.7279 11.3375 96.875 14.225 96.875C17.1126 96.875 19.8818 95.7279 21.9237 93.6861C23.9655 91.6443 25.1125 88.875 25.1125 85.9875C25.1125 83.0999 23.9655 80.3307 21.9237 78.2889C19.8818 76.2471 17.1126 75.1 14.225 75.1C11.3375 75.1 8.5682 76.2471 6.5264 78.2889C4.4846 80.3307 3.33752 83.0999 3.33752 85.9875ZM39.6292 75.7083H60.3667V96.4458H39.6292V75.7083ZM96.6625 96.4458H71.775L84.2167 73.6333L96.6625 96.4458ZM65.5542 19.1042C65.559 16.2987 64.805 13.5442 63.372 11.1324C61.939 8.72054 59.8804 6.74117 57.4142 5.40392C54.948 4.06666 52.166 3.42132 49.3629 3.53624C46.5598 3.65116 43.84 4.52206 41.4915 6.0567C39.1431 7.59135 37.2534 9.73259 36.0226 12.2536C34.7918 14.7747 34.2658 17.5817 34.5003 20.3773C34.7348 23.1729 35.721 25.8531 37.3545 28.1339C38.988 30.4147 41.2079 32.2113 43.7792 33.3333V40.8792H56.2209V33.3375C58.9923 32.1299 61.3514 30.1402 63.0092 27.6121C64.6669 25.084 65.5514 22.1273 65.5542 19.1042Z" stroke="#A56A58" stroke-width="5" stroke-linecap="round" stroke-linejoin="round"/>
</g>
<defs>
<clipPath id="clip0_91_176">
<rect width="100" height="100" fill="white"/>
</clipPath>
</defs>
</svg>
