<svg width="50" height="50" viewBox="0 0 50 50" fill="none" xmlns="http://www.w3.org/2000/svg">
<path d="M27.0834 41.6666C27.6144 41.6672 28.1251 41.8705 28.5112 42.2351C28.8974 42.5996 29.1297 43.0978 29.1608 43.6279C29.1919 44.158 29.0195 44.6799 28.6787 45.0871C28.3379 45.4943 27.8544 45.756 27.3271 45.8187L27.0834 45.8333H22.9167C22.3857 45.8327 21.875 45.6294 21.4889 45.2649C21.1028 44.9003 20.8704 44.4021 20.8393 43.8721C20.8082 43.342 20.9806 42.82 21.3214 42.4128C21.6622 42.0056 22.1457 41.7439 22.673 41.6812L22.9167 41.6666H27.0834ZM28.5563 13.1104C28.1976 12.7517 27.7203 12.5362 27.214 12.5044C26.7077 12.4725 26.2071 12.6265 25.8063 12.9375L25.6105 13.1104L21.4584 17.2625C21.0962 17.6247 20.8785 18.1067 20.8463 18.6179C20.8141 19.1292 20.9695 19.6347 21.2834 20.0395L21.4584 20.2375L24.1376 22.9166L21.4438 25.6104C21.0702 25.9853 20.8532 26.4884 20.8371 27.0174C20.8209 27.5465 21.0067 28.0619 21.3568 28.4589C21.7069 28.8559 22.195 29.1048 22.7219 29.155C23.2488 29.2051 23.7751 29.0529 24.1938 28.7291L24.3896 28.5562L28.5417 24.4041C29.2917 23.6541 29.3667 22.4645 28.7167 21.627L28.5417 21.4291L25.8626 18.75L28.5563 16.0562C28.9469 15.6655 29.1663 15.1357 29.1663 14.5833C29.1663 14.0309 28.9469 13.5011 28.5563 13.1104Z" fill="#A56A58"/>
<path opacity="0.3" d="M25 4.16675C34.1875 4.16675 41.6667 11.548 41.6667 20.6938C41.6667 26.9563 38.4959 31.5188 35.875 34.223L35.2834 34.8126L34.7209 35.3376L34.1959 35.7959L33.5084 36.3584L32.825 36.8667C32.323 37.2209 31.9855 37.7397 31.6792 38.2792L31.2521 39.0376C30.7563 39.8918 30.175 40.6251 28.9438 40.6251H21.0563C19.8271 40.6251 19.2438 39.8938 18.748 39.0376L18.5021 38.6042C18.1438 37.9542 17.7771 37.2917 17.175 36.8667L16.6917 36.5105L16.2771 36.1876L15.8042 35.7959L15.2792 35.3376L14.7167 34.8126L14.123 34.223C11.5042 31.5188 8.33337 26.9563 8.33337 20.6938C8.33337 11.548 15.8125 4.16675 25 4.16675Z" fill="#A56A58"/>
</svg>
