<svg width="100" height="100" viewBox="0 0 100 100" fill="none" xmlns="http://www.w3.org/2000/svg">
<path d="M83.3334 45.8333V37.5C83.3334 35.2898 82.4554 33.1702 80.8926 31.6074C79.3298 30.0446 77.2102 29.1666 75.0001 29.1666H25.0001C22.7899 29.1666 20.6703 30.0446 19.1075 31.6074C17.5447 33.1702 16.6667 35.2898 16.6667 37.5V58.3333C16.6667 60.5434 17.5447 62.663 19.1075 64.2258C20.6703 65.7886 22.7899 66.6666 25.0001 66.6666H45.8334M84.1667 84.1666L91.6667 91.6666M62.5001 75C62.5001 78.3152 63.817 81.4946 66.1612 83.8388C68.5054 86.183 71.6849 87.5 75.0001 87.5C78.3153 87.5 81.4947 86.183 83.8389 83.8388C86.1831 81.4946 87.5001 78.3152 87.5001 75C87.5001 71.6848 86.1831 68.5053 83.8389 66.1611C81.4947 63.8169 78.3153 62.5 75.0001 62.5C71.6849 62.5 68.5054 63.8169 66.1612 66.1611C63.817 68.5053 62.5001 71.6848 62.5001 75Z" stroke="#A56A58" stroke-width="5" stroke-linecap="round" stroke-linejoin="round"/>
</svg>
