<svg width="101" height="101" viewBox="0 0 101 101" fill="none" xmlns="http://www.w3.org/2000/svg">
<path d="M84.1333 48.4166V38C84.1333 35.7898 83.2554 33.6702 81.6926 32.1074C80.1298 30.5446 78.0102 29.6666 75.8 29.6666H25.8C23.5899 29.6666 21.4703 30.5446 19.9075 32.1074C18.3446 33.6702 17.4667 35.7898 17.4667 38V58.8333C17.4667 61.0434 18.3446 63.163 19.9075 64.7259C21.4703 66.2887 23.5899 67.1666 25.8 67.1666H54.9667M79.9667 94.25C80.8222 90.7135 82.6359 87.4814 85.2087 84.9086C87.7814 82.3359 91.0136 80.5221 94.55 79.6666C91.0136 78.8112 87.7814 76.9974 85.2087 74.4246C82.6359 71.8519 80.8222 68.6197 79.9667 65.0833C79.1112 68.6197 77.2974 71.8519 74.7247 74.4246C72.1519 76.9974 68.9198 78.8112 65.3833 79.6666C68.9198 80.5221 72.1519 82.3359 74.7247 84.9086C77.2974 87.4814 79.1112 90.7135 79.9667 94.25Z" stroke="#A56A58" stroke-width="5" stroke-linecap="round" stroke-linejoin="round"/>
</svg>
