<svg width="58" height="59" viewBox="0 0 58 59" fill="none" xmlns="http://www.w3.org/2000/svg">
<path d="M24.1667 7.74984C23.4819 7.74984 22.9084 7.51784 22.446 7.05384C21.9836 6.58984 21.7516 6.01628 21.75 5.33317C21.7484 4.65006 21.9804 4.0765 22.446 3.6125C22.9116 3.1485 23.4852 2.9165 24.1667 2.9165H33.8333C34.5181 2.9165 35.0924 3.1485 35.5564 3.6125C36.0204 4.0765 36.2516 4.65006 36.25 5.33317C36.2484 6.01628 36.0164 6.59064 35.554 7.05625C35.0916 7.52187 34.5181 7.75306 33.8333 7.74984H24.1667ZM29 34.3332C29.6847 34.3332 30.2591 34.1012 30.7231 33.6372C31.1871 33.1732 31.4183 32.5996 31.4167 31.9165V22.2498C31.4167 21.5651 31.1847 20.9916 30.7207 20.5292C30.2567 20.0668 29.6831 19.8348 29 19.8332C28.3169 19.8316 27.7433 20.0636 27.2793 20.5292C26.8153 20.9948 26.5833 21.5683 26.5833 22.2498V31.9165C26.5833 32.6012 26.8153 33.1756 27.2793 33.6396C27.7433 34.1036 28.3169 34.3348 29 34.3332ZM29 53.6665C26.0194 53.6665 23.2097 53.093 20.5707 51.9458C17.9317 50.7987 15.6262 49.2376 13.6542 47.2623C11.6822 45.2871 10.1218 42.9808 8.97308 40.3434C7.82436 37.706 7.25 34.8971 7.25 31.9165C7.25 28.9359 7.82436 26.1262 8.97308 23.4872C10.1218 20.8482 11.6822 18.5427 13.6542 16.5707C15.6262 14.5987 17.9325 13.0383 20.5731 11.8896C23.2137 10.7409 26.0227 10.1665 29 10.1665C31.4972 10.1665 33.8938 10.5693 36.1896 11.3748C38.4854 12.1804 40.6403 13.3484 42.6542 14.879L44.3458 13.1873C44.7889 12.7443 45.3528 12.5228 46.0375 12.5228C46.7222 12.5228 47.2861 12.7443 47.7292 13.1873C48.1722 13.6304 48.3938 14.1943 48.3938 14.879C48.3938 15.5637 48.1722 16.1276 47.7292 16.5707L46.0375 18.2623C47.5681 20.2762 48.7361 22.4311 49.5417 24.7269C50.3472 27.0228 50.75 29.4193 50.75 31.9165C50.75 34.8971 50.1756 37.7068 49.0269 40.3458C47.8782 42.9848 46.3178 45.2903 44.3458 47.2623C42.3738 49.2343 40.0675 50.7955 37.4269 51.9458C34.7863 53.0962 31.9773 53.6697 29 53.6665ZM29 48.8332C33.6722 48.8332 37.6597 47.1818 40.9625 43.879C44.2653 40.5762 45.9167 36.5887 45.9167 31.9165C45.9167 27.2443 44.2653 23.2568 40.9625 19.954C37.6597 16.6512 33.6722 14.9998 29 14.9998C24.3278 14.9998 20.3403 16.6512 17.0375 19.954C13.7347 23.2568 12.0833 27.2443 12.0833 31.9165C12.0833 36.5887 13.7347 40.5762 17.0375 43.879C20.3403 47.1818 24.3278 48.8332 29 48.8332Z" fill="#A56A58"/>
</svg>
