<svg width="100" height="100" viewBox="0 0 100 100" fill="none" xmlns="http://www.w3.org/2000/svg">
<path d="M50 12.5C29.2896 12.5 12.5 29.2896 12.5 50C12.5 70.7104 29.2896 87.5 50 87.5C70.7104 87.5 87.5 70.7104 87.5 50" stroke="#A56A58" stroke-width="5" stroke-linecap="round" stroke-linejoin="round"/>
<path d="M50 31.25C46.2916 31.25 42.6665 32.3497 39.5831 34.4099C36.4996 36.4702 34.0964 39.3986 32.6773 42.8247C31.2581 46.2508 30.8868 50.0208 31.6103 53.6579C32.3338 57.2951 34.1195 60.636 36.7418 63.2582C39.364 65.8805 42.7049 67.6663 46.3421 68.3897C49.9792 69.1132 53.7492 68.7419 57.1753 67.3227C60.6014 65.9036 63.5298 63.5004 65.5901 60.4169C67.6503 57.3335 68.75 53.7084 68.75 50M50 50L63.125 36.8625" stroke="#A56A58" stroke-width="5" stroke-linecap="round" stroke-linejoin="round"/>
<path d="M63.125 23.8042V36.875H76.3021L87.5 25.625H74.3812V12.5L63.125 23.8042Z" stroke="#A56A58" stroke-width="5" stroke-linejoin="round"/>
</svg>
