<svg width="50" height="50" viewBox="0 0 50 50" fill="none" xmlns="http://www.w3.org/2000/svg">
<g clip-path="url(#clip0_91_146)">
<path d="M40.3125 29.1668C39.1162 29.2302 37.9259 28.9575 36.8766 28.3794C35.8272 27.8014 34.9607 26.9411 34.375 25.8959C34.3237 25.8102 34.248 25.7419 34.1575 25.6996C34.067 25.6573 33.966 25.6431 33.8673 25.6588C33.7687 25.6745 33.6771 25.7194 33.6042 25.7876C33.5313 25.8559 33.4805 25.9444 33.4583 26.0418L30.1667 36.4584C29.9489 37.0852 29.536 37.6256 28.9886 38.0006C28.4412 38.3755 27.7881 38.5652 27.125 38.5418C26.4552 38.5525 25.8001 38.3449 25.2588 37.9502C24.7176 37.5555 24.3195 36.9953 24.125 36.3543L19.2917 18.3334C19.2678 18.2157 19.2039 18.1099 19.1109 18.0338C19.0178 17.9578 18.9014 17.9163 18.7813 17.9163C18.6611 17.9163 18.5447 17.9578 18.4516 18.0338C18.3586 18.1099 18.2947 18.2157 18.2708 18.3334C17.7991 21.0398 16.9579 23.6685 15.7708 26.1459C15.2243 27.1382 14.4025 27.9512 13.4045 28.4872C12.4065 29.0231 11.2749 29.2592 10.1458 29.1668H0.354172C1.34433 34.9865 4.36202 40.2681 8.87285 44.0763C13.3837 47.8845 19.0966 49.9736 25 49.9736C30.9034 49.9736 36.6163 47.8845 41.1272 44.0763C45.638 40.2681 48.6557 34.9865 49.6458 29.1668H40.3125Z" fill="#A56A58"/>
<path d="M10.1458 25C12.1042 25 12.2292 25 14.1458 17.5834C14.5625 15.875 15.0833 13.875 15.7083 11.5417C15.9116 10.8994 16.3182 10.3407 16.8669 9.9498C17.4156 9.55895 18.0766 9.3572 18.75 9.37502C19.411 9.34947 20.0625 9.53861 20.607 9.91415C21.1515 10.2897 21.5598 10.8314 21.7708 11.4584L26.7708 30.0625C26.8024 30.1707 26.8682 30.2657 26.9583 30.3334C27.0485 30.401 27.1581 30.4375 27.2708 30.4375C27.3835 30.4375 27.4932 30.401 27.5833 30.3334C27.6735 30.2657 27.7393 30.1707 27.7708 30.0625L30.5833 21.125C30.7882 20.5352 31.1662 20.0208 31.668 19.6492C32.1697 19.2775 32.7719 19.0658 33.3958 19.0417C33.9992 18.9953 34.6032 19.1239 35.1353 19.4122C35.6674 19.7004 36.1051 20.136 36.3958 20.6667L37 21.8334C38.2083 24.2709 38.5625 24.8542 40.3125 24.8542H50C49.9807 18.2238 47.3282 11.8726 42.6261 7.19788C37.924 2.52314 31.5575 -0.0922303 24.9271 -0.0728916C18.2967 -0.0535529 11.9455 2.59891 7.27077 7.301C2.59604 12.0031 -0.0193389 18.3696 -3.2557e-07 25H10.1458Z" fill="#A56A58"/>
</g>
<defs>
<clipPath id="clip0_91_146">
<rect width="50" height="50" fill="white"/>
</clipPath>
</defs>
</svg>
